HIERARCHY
ROOT Hips
{
	OFFSET -14.64140 90.27770 -84.91600
	CHANNELS 6 Xposition Yposition Zposition Zrotation Xrotation Yrotation
	JOINT Spine
	{
		OFFSET 0.00000 13.20850 -1.60436
		CHANNELS 3 Zrotation Xrotation Yrotation
		JOINT Spine1
		{
			OFFSET 0.00000 8.61716 0.00000
			CHANNELS 3 Zrotation Xrotation Yrotation
			JOINT Spine2
			{
				OFFSET 0.00000 8.61717 0.00000
				CHANNELS 3 Zrotation Xrotation Yrotation
				JOINT Spine3
				{
					OFFSET 0.00000 8.61717 0.00000
					CHANNELS 3 Zrotation Xrotation Yrotation
					JOINT Neck
					{
						OFFSET 0.00000 11.07920 1.10792
						CHANNELS 3 Zrotation Xrotation Yrotation
						JOINT Neck1
						{
							OFFSET 0.00000 7.08032 0.00000
							CHANNELS 3 Zrotation Xrotation Yrotation
							JOINT Head
							{
								OFFSET 0.00000 7.08031 0.00000
								CHANNELS 3 Zrotation Xrotation Yrotation
								End site
								{
									OFFSET 0.00000 0.00000 0.00000
								}
							}
						}
					}
					JOINT RightShoulder
					{
						OFFSET -0.01000 7.91373 5.19711
						CHANNELS 3 Zrotation Xrotation Yrotation
						JOINT RightArm
						{
							OFFSET -18.41580 0.00000 0.00000
							CHANNELS 3 Zrotation Xrotation Yrotation
							JOINT RightForeArm
							{
								OFFSET -29.11090 0.00000 0.00000
								CHANNELS 3 Zrotation Xrotation Yrotation
								JOINT RightHand
								{
									OFFSET -24.65040 0.00000 0.00000
									CHANNELS 3 Zrotation Xrotation Yrotation
									JOINT RightHandThumb1
									{
										OFFSET -5.35114 -0.85590 3.97906
										CHANNELS 3 Zrotation Xrotation Yrotation
										JOINT RightHandThumb2
										{
											OFFSET -4.52789 0.00000 0.00000
											CHANNELS 3 Zrotation Xrotation Yrotation
											JOINT RightHandThumb3
											{
												OFFSET -2.46976 0.00000 0.00000
												CHANNELS 3 Zrotation Xrotation Yrotation
												End site
												{
													OFFSET 0.00000 0.00000 0.00000
												}
											}
										}
									}
									JOINT RightHandIndex1
									{
										OFFSET -14.26970 0.00000 2.88139
										CHANNELS 3 Zrotation Xrotation Yrotation
										JOINT RightHandIndex2
										{
											OFFSET -5.48836 0.00000 0.00000
											CHANNELS 3 Zrotation Xrotation Yrotation
											JOINT RightHandIndex3
											{
												OFFSET -3.01859 0.00000 0.00000
												CHANNELS 3 Zrotation Xrotation Yrotation
												End site
												{
													OFFSET 0.00000 0.00000 0.00000
												}
											}
										}
									}
									JOINT RightHandMiddle1
									{
										OFFSET -14.26970 0.00000 -0.09147
										CHANNELS 3 Zrotation Xrotation Yrotation
										JOINT RightHandMiddle2
										{
											OFFSET -6.17441 0.00000 0.00000
											CHANNELS 3 Zrotation Xrotation Yrotation
											JOINT RightHandMiddle3
											{
												OFFSET -3.56743 0.00000 0.00000
												CHANNELS 3 Zrotation Xrotation Yrotation
												End site
												{
													OFFSET 0.00000 0.00000 0.00000
												}
											}
										}
									}
									JOINT RightHandRing1
									{
										OFFSET -12.69180 0.00000 -3.06433
										CHANNELS 3 Zrotation Xrotation Yrotation
										JOINT RightHandRing2
										{
											OFFSET -5.62556 0.00000 0.00000
											CHANNELS 3 Zrotation Xrotation Yrotation
											JOINT RightHandRing3
											{
												OFFSET -3.56744 0.00000 0.00000
												CHANNELS 3 Zrotation Xrotation Yrotation
												End site
												{
													OFFSET 0.00000 0.00000 0.00000
												}
											}
										}
									}
									JOINT RightHandPinky1
									{
										OFFSET -11.11390 0.00000 -6.03719
										CHANNELS 3 Zrotation Xrotation Yrotation
										JOINT RightHandPinky2
										{
											OFFSET -4.52789 0.00000 0.00000
											CHANNELS 3 Zrotation Xrotation Yrotation
											JOINT RightHandPinky3
											{
												OFFSET -2.46976 0.00000 0.00000
												CHANNELS 3 Zrotation Xrotation Yrotation
												End site
												{
													OFFSET 0.00000 0.00000 0.00000
												}
											}
										}
									}
								}
							}
						}
					}
					JOINT LeftShoulder
					{
						OFFSET 0.01000 7.91373 5.19711
						CHANNELS 3 Zrotation Xrotation Yrotation
						JOINT LeftArm
						{
							OFFSET 18.41580 0.00000 0.00000
							CHANNELS 3 Zrotation Xrotation Yrotation
							JOINT LeftForeArm
							{
								OFFSET 29.11090 0.00000 0.00000
								CHANNELS 3 Zrotation Xrotation Yrotation
								JOINT LeftHand
								{
									OFFSET 24.65040 0.00000 0.00000
									CHANNELS 3 Zrotation Xrotation Yrotation
									JOINT LeftHandThumb1
									{
										OFFSET 5.35114 -0.85590 3.97906
										CHANNELS 3 Zrotation Xrotation Yrotation
										JOINT LeftHandThumb2
										{
											OFFSET 4.52789 0.00000 0.00000
											CHANNELS 3 Zrotation Xrotation Yrotation
											JOINT LeftHandThumb3
											{
												OFFSET 2.46977 0.00000 0.00000
												CHANNELS 3 Zrotation Xrotation Yrotation
												End site
												{
													OFFSET 0.00000 0.00000 0.00000
												}
											}
										}
									}
									JOINT LeftHandIndex1
									{
										OFFSET 14.26970 0.00000 2.88139
										CHANNELS 3 Zrotation Xrotation Yrotation
										JOINT LeftHandIndex2
										{
											OFFSET 5.48836 0.00000 0.00000
											CHANNELS 3 Zrotation Xrotation Yrotation
											JOINT LeftHandIndex3
											{
												OFFSET 3.01859 0.00000 0.00000
												CHANNELS 3 Zrotation Xrotation Yrotation
												End site
												{
													OFFSET 0.00000 0.00000 0.00000
												}
											}
										}
									}
									JOINT LeftHandMiddle1
									{
										OFFSET 14.26970 0.00000 -0.09147
										CHANNELS 3 Zrotation Xrotation Yrotation
										JOINT LeftHandMiddle2
										{
											OFFSET 6.17440 0.00000 0.00000
											CHANNELS 3 Zrotation Xrotation Yrotation
											JOINT LeftHandMiddle3
											{
												OFFSET 3.56744 0.00000 0.00000
												CHANNELS 3 Zrotation Xrotation Yrotation
												End site
												{
													OFFSET 0.00000 0.00000 0.00000
												}
											}
										}
									}
									JOINT LeftHandRing1
									{
										OFFSET 12.69180 0.00000 -3.06433
										CHANNELS 3 Zrotation Xrotation Yrotation
										JOINT LeftHandRing2
										{
											OFFSET 5.62556 0.00000 0.00000
											CHANNELS 3 Zrotation Xrotation Yrotation
											JOINT LeftHandRing3
											{
												OFFSET 3.56744 0.00000 0.00000
												CHANNELS 3 Zrotation Xrotation Yrotation
												End site
												{
													OFFSET 0.00000 0.00000 0.00000
												}
											}
										}
									}
									JOINT LeftHandPinky1
									{
										OFFSET 11.11390 0.00000 -6.03719
										CHANNELS 3 Zrotation Xrotation Yrotation
										JOINT LeftHandPinky2
										{
											OFFSET 4.52789 0.00000 0.00000
											CHANNELS 3 Zrotation Xrotation Yrotation
											JOINT LeftHandPinky3
											{
												OFFSET 2.46976 0.00000 0.00000
												CHANNELS 3 Zrotation Xrotation Yrotation
												End site
												{
													OFFSET 0.00000 0.00000 0.00000
												}
											}
										}
									}
								}
							}
						}
					}
					JOINT pCube4
					{
						OFFSET 0.00000 10.91090 1.10792
						CHANNELS 3 Zrotation Xrotation Yrotation
						End site
						{
							OFFSET 0.00000 0.00000 0.00000
						}
					}
				}
			}
		}
	}
	JOINT RightUpLeg
	{
		OFFSET -9.98441 0.00000 0.00000
		CHANNELS 3 Zrotation Xrotation Yrotation
		JOINT RightLeg
		{
			OFFSET 0.00000 -42.11790 0.00000
			CHANNELS 3 Zrotation Xrotation Yrotation
			JOINT RightFoot
			{
				OFFSET 0.00000 -45.00020 -0.00001
				CHANNELS 3 Zrotation Xrotation Yrotation
				JOINT RightForeFoot
				{
					OFFSET 0.00000 -3.74820 0.00000
					CHANNELS 3 Zrotation Xrotation Yrotation
					JOINT RightToeBase
					{
						OFFSET 0.00000 0.06325 14.43120
						CHANNELS 3 Zrotation Xrotation Yrotation
						End site
						{
							OFFSET 0.00000 0.00000 0.00000
						}
					}
				}
			}
		}
	}
	JOINT LeftUpLeg
	{
		OFFSET 9.98441 0.00000 0.00000
		CHANNELS 3 Zrotation Xrotation Yrotation
		JOINT LeftLeg
		{
			OFFSET 0.00000 -42.11800 0.00000
			CHANNELS 3 Zrotation Xrotation Yrotation
			JOINT LeftFoot
			{
				OFFSET 0.00000 -45.00070 0.00000
				CHANNELS 3 Zrotation Xrotation Yrotation
				JOINT LeftForeFoot
				{
					OFFSET 0.00000 -3.74824 0.00000
					CHANNELS 3 Zrotation Xrotation Yrotation
					JOINT LeftToeBase
					{
						OFFSET 0.00000 0.06325 14.43110
						CHANNELS 3 Zrotation Xrotation Yrotation
						End site
						{
							OFFSET 0.00000 0.00000 0.00000
						}
					}
				}
			}
		}
	}
}
MOTION
Frames: 4
Frame Time: 0.050000
-0.013643458193173192 -0.03867837088089279 0.03544033124653314 0.04249807639979671 0.0003065583985315688 0.008972899733763392 3.6334275032182393 4.609010308670834 -1.8610842164774564 -0.8632151899722709 3.489855154568757 0.4014964254008918 -0.5876755744675308 -0.5969884703331448 -0.39737279139114806 -0.4851638712666695 -0.23048711174294442 -0.49497175835316803 -0.8925145625792331 11.001856287073247 0.5227694764079468 -0.05128974675422348 -1.21635057529779 1.323416893621353 -0.08175276439239845 -17.746777369846836 0.07695913781145475 -7.307215972497871 2.962358661061558 -15.961009877219768 76.1766180639267 -0.7650946055647327 6.20556433792185 7.781233538207018 3.1984947305089673 86.53269019271923 8.922000916936241 -0.23102776179118215 -2.378781265839192 4.551423690473994 -0.14880501357691547 -1.6101797838712668 0.018187287376798405 -0.03384584062095123 -56.205811332143924 0.0012041205081304964 0.037645244466738774 -56.19414701180654 -38.77263166572267 -0.025118298599288807 0.025743477179648675 0.028451841078646522 0.020732062013644154 -0.03341995728871933 0.013784082223052347 0.01635109333366915 0.044999612092959836 -36.65816299892638 -0.02624799089171949 -0.009147517367862748 0.04280481941787878 -0.041713529220677024 0.01794793683588718 0.01563757684760427 -0.0011744175619029084 0.03742229083199821 -19.77530079800169 0.04540053331765686 0.006643075565187627 0.010912109604155576 -0.0001701331656682175 -0.008332192863387185 -0.02863107618053011 -0.00700527945070416 -0.039121173393738204 24.097274235744344 0.0016393648861962845 -0.019552570895110113 28.893456865560868 0.012203734022151894 -0.01357473439819848 28.855465463692774 -0.017352831204591176 0.042740609106215466 9.574619473356652 2.348855384842832 13.449953352785766 -68.6727767239922 18.96064512836604 -21.851605423254625 -6.20716864225492 -2.7050909469915805 -88.228649573643 -7.762454921929337 -3.070981278375978 0.08924173481216893 -0.48383625347197773 0.06841963362725197 -8.074765185837645 0.039073768068657096 0.0410685401452503 44.539057276705506 0.030771073271296297 -0.03423411901401438 44.60814334460422 12.44629509302224 0.0019745965559784494 -0.0034780871738068603 -0.031296570388650025 -0.019294067724770977 -0.02706516943368659 0.034637105545824394 -0.024522898518801253 -0.04435351606928246 11.066082068213525 0.0022358786097857845 0.04987907804621191 0.02433334712457692 0.02008560296465961 -0.022291668183451758 -0.007030613762398346 0.037079343708700856 -0.042189895928455214 4.770056957759867 -0.0022105705699164173 0.04508863466228469 -0.04314108492154108 0.02402946587056262 -0.0026405554534424114 0.019159005715662036 0.033079658123540724 0.03316098034447591 -5.58844099376176 -0.04529877305672404 -0.043713616895843806 -6.709944198042281 0.007061318899439751 -0.0066928708395450716 -6.687290066285326 -0.04076738502256451 -0.032054545087166215 0.0070975405348502035 0.033743315193672234 -0.0009123876869766268 7.995573769414667 3.4706667916711043 -19.2214434277363 0.010194036956536779 10.42591105521089 -0.00842695261490458 -5.653605816703894 -15.619560834648748 3.1899143931670677 -0.04648387116029156 -0.005436725145409347 0.005905745753642451 0.04307032458749137 4.70434746463941 0.031285105667472383 12.449371903711846 -8.244491693679775 6.85854779903578 0.04127002595961184 46.41529702264043 0.031132139189629707 -4.310328097031027 -14.72928975697257 -3.8010774636181366 -0.03999735125691647 -0.031759827575359716 -0.04598333895975049 -0.04592193076300986 -10.75160836390077 0.009463009036832393 
-0.041868635689337255 0.0009826292050222451 -0.011579354533255905 -0.003018644310549986 0.007111889090457137 0.005334102687799544 3.4691472159258456 4.538707529797938 -1.8287400260760898 -0.8281113385645562 3.5114347497958147 0.430544530994944 -0.6174281417957734 -0.5733199062079959 -0.38318600775436434 -0.3812395986848365 -0.20183044209127202 -0.4705802600182805 -0.7423839622524582 11.178298430569521 0.27022887424045783 0.0027543845934634853 -1.1194989084115876 0.8930841540126611 0.019173039750224764 -17.49852152166026 0.06944879453434402 -7.239328921056018 2.9194417202718244 -15.965758997675657 75.31168978983372 -0.3258263221849233 7.2224073946334775 8.317520616484572 3.4982397497260247 86.6508219995041 9.360519711933781 -0.2229576573272166 -2.3345881824139867 4.500153071712559 -0.08790506644693705 -1.5780675926193097 0.007655725740387612 0.04196933857861844 -56.22007584543771 -0.048703617709626196 0.009822553735727739 -56.22359045382037 -38.739279801036574 -0.025373807401363312 0.01428013292208226 -0.0045939274829459205 -0.03799549304806407 -0.019956260724705556 0.029707988295597114 0.016688277486696313 -0.036491229098580505 -36.71710615315007 -0.0057288498168814464 -0.036053684013737965 -0.01824197668055518 -0.025135600951044522 -0.04830568252420292 0.006062861477255161 0.020391493244511765 -0.029636902527009904 -19.796489497170185 0.005530066235146163 0.0402381079332408 0.0005065019429484792 0.025814643219192294 0.006638177855637009 -0.0038274947727105547 0.005854184779819277 0.023532039973487743 24.06600217868437 -0.014500891765809248 0.01669005462769666 28.82709768387745 -0.037265721178182026 0.03396758423385452 28.834494084355292 -0.02733218212115933 -0.01631039744505362 9.182229983872086 2.278253711344745 13.437829315845773 -68.22984522821486 20.443817724867294 -21.812480922048067 -5.67635571135559 -1.9831830761672617 -88.58889425032203 -9.074353409162976 -3.1260537081838726 0.3120521028068735 -0.4486050713378494 0.03095967824779563 -8.135483012203593 0.011736892273954802 -0.0230765021983149 44.550362528040274 0.004693813914470813 -0.04332344970860847 44.534673629675254 12.430152215037792 -0.045183411912125854 -0.013958619669241055 -0.027604824728429515 0.02529825439115816 -0.04056965986917632 -0.024437170027757003 -0.018181198383295186 -0.013186803812304661 11.101542490006414 -0.0420826487403567 0.0012574410633765913 0.007103554268031522 -0.005012606423859773 -0.029696499008597242 -0.008191504216646618 0.03125199544221725 0.040008120036330114 4.7262252888315235 0.03892940866257106 -0.0026386787322220666 0.008454614872185377 0.02579252414587411 -0.0043606372910493406 0.009777458420462872 -0.024724076578708908 0.030410587364169003 -5.597719690401994 -0.01476850205212456 -0.004669716051722739 -6.696075836618977 0.002700407795859491 0.02796658753469749 -6.698835977929315 -0.0017668800513508537 -0.004930683588428125 -0.020900677813761637 0.013809822164509523 0.04380350817997657 8.07768355967499 3.4687342818212654 -19.22025706615012 0.006296738245171417 10.363155072047196 0.015693907656024842 -5.630170179280071 -15.703037668938393 3.198575872713597 -0.042050774442804736 0.010412373299477529 0.02636516148486272 0.0007060007823426278 4.687795343158154 -0.04711298812223024 12.49856619558353 -8.211826428765201 6.913843553511778 -0.013841855007179384 46.33724081576442 0.05024933624583374 -4.318137533368905 -14.785464218748308 -3.8435028777506495 0.03512226490372112 0.021849175769736644 -0.03959559766247351 -0.0002861746238675593 -10.747168938376163 0.005116017438095759 
0.03990933232339087 -0.015007652593415428 -0.00785753169227695 0.04246372170383747 0.012680436943621526 0.010509489407331624 3.391233313880797 4.49812802420451 -1.8281944711296598 -0.8753107187444311 3.581104974140919 0.3828805637551418 -0.6409675529518787 -0.5973078733872735 -0.3685818019573192 -0.32358400062783677 -0.13585248417284485 -0.49459215532598083 -0.701113739488483 11.247723387755666 0.14016496432464065 0.007208604325218382 -0.974247105103976 0.5055806116637998 0.0359476589528524 -17.117438838460682 0.06879431482779783 -7.23943049905167 2.9265054863825486 -15.981363556889189 74.37460203658607 -0.4466298939942656 8.102251434203344 8.662923676747603 3.6487537075884466 87.18613162995786 9.733493511381514 -0.2091150626701922 -2.437964345010538 4.490909464579958 -0.13279616895739582 -1.6038222857042317 -0.0016573203568133294 -0.011793674612862405 -56.22483428184293 -0.04558658761447284 -0.004307680845491499 -56.25077960782134 -38.793884128591486 -0.03400704326186923 0.0023257032761672025 0.042319249457152215 -0.01678612243580801 0.038147901734401225 0.02994836503425009 0.02463677201357146 -0.026159639064860185 -36.69248896311172 -0.0328544859058574 -0.004911178070519392 0.011279338770375708 0.009658219832888037 0.03136403510796446 0.004772928213250085 0.03469693633018763 0.037784103584371474 -19.726974934681014 -0.04193358355303434 -0.03733126107697861 -0.02535360605852932 0.045160306520182804 0.02934260204997622 0.02725658187832495 0.020057588267683665 -0.02699194236799617 24.082936717186783 0.03840531262863348 0.011360008046554342 28.91177478529352 -0.00438562144154046 0.04647218409928238 28.84599956626253 0.03900175640196071 0.006870347715553408 8.99143536942502 2.245672526432552 13.349798682698223 -67.90716637738961 21.483356532669475 -21.59038487486545 -5.11249989507477 -1.6690908157924804 -89.09511245467355 -10.156679532953525 -3.424288401197983 0.5862150537699469 -0.49400946906960647 0.06619666087686459 -8.130414453810666 -0.004735789059698342 -0.029264831728892236 44.549055204803395 -0.012906891219886018 0.043537991035580925 44.60486131196538 12.413189615610241 -0.028076490869986058 -0.0015970511849099818 -0.01923827419348543 -0.027250705111362603 -0.04214866568230606 0.021623853933529735 -0.03890713876696746 -0.030896737900616394 11.121706740006923 0.024852263832213044 -0.0009958900390358086 0.01768644694527685 0.025110330068740094 -0.03149353145395404 0.024717562551865746 -0.014817837313836044 -0.045312062630023624 4.797588555551033 0.02141104144095348 -0.042845428294170165 0.03224918885519712 -0.008643075797726057 3.016379034663078e-05 0.021187832848701293 0.037973588198887465 0.007131347758815555 -5.597221359335388 0.02227907845993507 -0.006962871690026142 -6.672813736206331 0.011985657020759545 0.02408621353194162 -6.708279949474245 -0.021701215248524093 -0.04481858902363838 -0.012232347955951038 -0.030980572733302826 0.02359484627896514 8.069197239203897 3.449323245531785 -19.220897469404072 0.03913788421788147 10.435403947504579 0.039268545665210944 -5.639511840067795 -15.695350362252992 3.158837832930577 -0.012230693585683725 0.005881651117334529 0.04131153757638515 0.027407249524500167 4.694463627708627 0.03638239347370246 12.416784577277186 -8.275201767328566 6.897551261826401 -0.01804040640585297 46.3799527693956 0.00882037623369443 -4.2882095322491995 -14.778277394145672 -3.8623898196945468 -0.028080640679848008 -0.044746953248903695 -0.009550799664229281 0.005900096276846201 -10.697069072756822 0.005653969292328068 
0.03836003893981142 -0.008367936124373294 0.0349783249435155 0.0007077922983266667 0.042417293166065406 -0.027654222660737096 3.2757154049616597 4.408162721365904 -1.8324705557913592 -0.8118279482990695 3.5261090029599074 0.3539303937616968 -0.6339993215662264 -0.6007230509744758 -0.28430811915792603 -0.28799186875510385 -0.1462570734262161 -0.4974408133950836 -0.572603689926785 11.42193562512312 -0.03804740306789703 0.051125157827069986 -0.7882069731629867 0.10661051299082513 0.11649750467708124 -16.752192922106133 0.05387775163706752 -7.253518143169322 2.933209444640315 -16.05845643112299 73.37515586788082 -1.1570523771315442 8.730019660719806 9.657789132520298 3.642666294549201 87.76706148666 10.37144978216458 -0.25602392351230946 -2.761872805969667 4.569475282724073 -0.13512437783755027 -1.6144225031480588 0.020897170879992762 -0.0068242149808366605 -56.22175981201808 0.0381664913000802 0.02372432184735583 -56.23529271733587 -38.72143631786134 0.005748230822808186 -0.04000602812949005 -0.004713487727548844 0.029099978588014972 -0.021326014941229307 0.040890049038160126 0.049102036913785105 -0.022980791335773083 -36.70635026807489 -0.021197786276488353 -0.0253973788676408 -0.0016111580172442832 -0.03894465925097973 0.036106846558857 0.011848699181909202 0.002414942587029794 0.004028036688934 -19.718973504667346 -0.03659701883153362 -0.002146193343115361 0.008465570134483333 0.02617494523857236 -0.02477147225889641 -0.04505951717050024 0.024961480159130828 -0.00023172086988741653 24.026162393424972 0.025115828537821388 -0.017748810675881254 28.836595381927065 0.0262943868201662 -0.013867809960299047 28.882338966913963 0.030496826037980398 -0.029936845436316167 8.743004936162722 2.2741839855247865 13.386919739213596 -67.48298371138802 21.995336274341625 -20.9210812934863 -6.045950668110632 -1.472169844698954 -89.48827861680601 -11.195949424391825 -3.6594635729571063 0.7806535533362071 -0.5203483731362302 0.07454628867080279 -8.08371924620961 -0.018897439384858782 0.02060647079020303 44.60916494552017 0.014721384431066385 -0.030309338855373433 44.557722396159214 12.457662614850067 -0.0021557274022600717 0.04178015737032307 -0.035331821373162854 0.031373434516615104 -0.005512445216492561 -0.007425309130337098 -0.04803054094527632 -0.03432571580703484 11.13074214068718 -0.045730808591527616 -0.04249349808060795 -0.03347711080937642 -0.046239834129708474 -0.01700533248746182 -0.03446524363416168 -0.0034640242784376063 -0.011196455682702002 4.8036954767900095 -0.0436701525506306 -0.04191531073244588 0.03766303005671665 -0.0426810567309251 0.021906130850804548 0.018016484968588806 -0.018137870466525326 -0.0354108028004806 -5.576554045466676 0.026582727695414764 0.03191084816639283 -6.715143982154158 0.004607576837092417 -0.03277549424779165 -6.728363737991365 0.0035957459554260243 -0.0395804375917466 0.004907544955983966 -0.0005905869327803298 -0.008536278745908664 8.074197541752472 3.4863350182984343 -19.227623102532448 0.008346597899144192 10.36932916797828 0.03935894020262624 -5.628812220134401 -15.611510660360892 3.1593967089360624 0.04542653630215382 0.04282554341625499 -0.007191801840375232 0.03191237842329887 4.697349339538861 -0.0155388190167848 12.427027210220729 -8.26913881062477 6.893174476431485 -0.015237693488466765 46.395388299474284 -0.030448373212118858 -4.337643231634517 -14.781657118132397 -3.8558590042305894 -0.012913253883081118 0.03161301666286531 0.013111168555257598 0.028026178225693494 -10.717175180422743 0.029420155416359478 
